<svg xmlns="http://www.w3.org/2000/svg" width="34" height="34" viewBox="0 0 34 34"><defs><style>.a{fill:#ef6230;}.b{fill:#fff;}</style></defs><g transform="translate(-657 -83)"><circle class="a" cx="17" cy="17" r="17" transform="translate(657 83)"/><g transform="translate(539.946 86)"><path class="b" d="M138.78,13.507l-.973-.3.926-.44a4.259,4.259,0,0,0,2.811-4.09,4.487,4.487,0,0,0-.266-1.543A4.429,4.429,0,0,0,140.5,5.8a4.628,4.628,0,0,0-1.171-1,5.011,5.011,0,0,0-1.77-.641,15.09,15.09,0,0,0-2.449-.174h-.737V.957a.957.957,0,0,0-1.915,0V3.988h-3.318a2.26,2.26,0,0,0-1.62.471,2.307,2.307,0,0,0-.471,1.648V21.339a2.354,2.354,0,0,0,.464,1.64,2.215,2.215,0,0,0,1.627.478h3.318v3.909a.958.958,0,0,0,1.915,0V23.457h.363a21.318,21.318,0,0,0,2.754-.156,7.965,7.965,0,0,0,2.027-.518,4.858,4.858,0,0,0,2.168-1.859,5.2,5.2,0,0,0,.808-2.848C142.5,15.8,141.282,14.3,138.78,13.507Zm-1.787-6.689a2.389,2.389,0,0,1,1.323,2.4,2.893,2.893,0,0,1-.4,1.5A2.646,2.646,0,0,1,136.426,12a7.018,7.018,0,0,1-2.049.306v-6A7.236,7.236,0,0,1,136.994,6.818Zm-7.226-.542h2.694V12.31h-2.694Zm0,14.894V14.459h2.694V21.17Zm4.807,0h-.2V14.459h.059a6.345,6.345,0,0,1,3.435.754,2.828,2.828,0,0,1,1.261,2.56C139.132,19.323,138.342,21.17,134.574,21.17Z" transform="translate(0)"/></g></g></svg>