<svg xmlns="http://www.w3.org/2000/svg" width="24.572" height="21.597" viewBox="0 0 24.572 21.597"><defs><style>.a{fill:#0071c1;}</style></defs><path class="a" d="M.719,162.507H19.532a.721.721,0,0,0,.461-.167c.181-.151,4.3-3.7,4.554-11.352H4.342C4.092,157.936.3,161.2.256,161.235a.721.721,0,0,0,.463,1.272Z" transform="translate(0 -145.229)"/><path class="a" d="M110.462,32.428h-3.6v-.72a.72.72,0,1,0-1.44,0v.72h-3.648v-.72a.72.72,0,0,0-1.44,0v.72h-3.6v-.72a.72.72,0,0,0-1.44,0v.72H91.7a.713.713,0,0,0-.72.72v2.16h20.206v-2.16A.713.713,0,0,0,110.462,32.428Z" transform="translate(-86.61 -30.988)"/><path class="a" d="M107.529,303.251a2.166,2.166,0,0,1-1.386.5H90.977v2.16a.719.719,0,0,0,.72.72h18.766a.719.719,0,0,0,.72-.72v-8.07A14.268,14.268,0,0,1,107.529,303.251Z" transform="translate(-86.611 -285.036)"/></svg>