<svg xmlns="http://www.w3.org/2000/svg" width="36.516" height="35" viewBox="0 0 36.516 35"><defs><style>.a{fill:#4caf50;}.b{fill:#fafafa;}</style></defs><g transform="translate(0 -10.626)"><g transform="translate(0 10.626)"><path class="a" d="M21.014,10.8a.761.761,0,0,0-.645-.152L.59,15.208a.761.761,0,0,0-.59.749V41.822a.761.761,0,0,0,.645.752l19.779,3.043a.761.761,0,0,0,.876-.752V11.393A.76.76,0,0,0,21.014,10.8Z" transform="translate(0 -10.626)"/><path class="a" d="M293.309,82.285H278.094a.761.761,0,1,1,0-1.522h14.454V54.9H278.094a.761.761,0,1,1,0-1.521h15.215a.761.761,0,0,1,.761.761V81.524A.761.761,0,0,1,293.309,82.285Z" transform="translate(-257.554 -50.328)"/></g><g transform="translate(6.072 21.26)"><path class="b" d="M93.53,173.473a.761.761,0,0,1-.645-.358l-7.607-12.172a.761.761,0,1,1,1.264-.847q.014.021.026.042l7.607,12.172a.761.761,0,0,1-.645,1.162Z" transform="translate(-85.149 -159.757)"/><path class="b" d="M86.114,173.452a.761.761,0,0,1-.644-1.164l7.607-12.172a.761.761,0,0,1,1.316.763q-.012.021-.026.042l-7.607,12.172A.761.761,0,0,1,86.114,173.452Z" transform="translate(-85.34 -159.737)"/></g><g transform="translate(19.779 13.675)"><path class="a" d="M363.428,82.284a.761.761,0,0,1-.761-.761V54.137a.761.761,0,0,1,1.522,0V81.523A.761.761,0,0,1,363.428,82.284Z" transform="translate(-356.581 -53.376)"/><path class="a" d="M293.309,374.9H278.094a.761.761,0,1,1,0-1.522h15.215a.761.761,0,0,1,0,1.522Z" transform="translate(-277.333 -350.554)"/><path class="a" d="M293.309,310.9H278.094a.761.761,0,1,1,0-1.522h15.215a.761.761,0,0,1,0,1.522Z" transform="translate(-277.333 -291.118)"/><path class="a" d="M293.309,246.9H278.094a.761.761,0,0,1,0-1.522h15.215a.761.761,0,0,1,0,1.522Z" transform="translate(-277.333 -231.683)"/><path class="a" d="M293.309,182.9H278.094a.761.761,0,1,1,0-1.522h15.215a.761.761,0,0,1,0,1.522Z" transform="translate(-277.333 -172.247)"/><path class="a" d="M293.309,118.9H278.094a.761.761,0,1,1,0-1.522h15.215a.761.761,0,0,1,0,1.522Z" transform="translate(-277.333 -112.812)"/></g></g></svg>