<svg xmlns="http://www.w3.org/2000/svg" width="23.25" height="31" viewBox="0 0 23.25 31"><defs><style>.a{fill:#398eca;}.b{fill:#fff;}</style></defs><g transform="translate(-460 -85)"><g transform="translate(396 85)"><g transform="translate(79.5)"><path class="a" d="M320,0V7.75h7.75Z" transform="translate(-320)"/></g><g transform="translate(64)"><path class="a" d="M79.5,9.688A1.941,1.941,0,0,1,77.563,7.75V0H65.938A1.941,1.941,0,0,0,64,1.938V29.063A1.939,1.939,0,0,0,65.938,31H85.313a1.938,1.938,0,0,0,1.938-1.938V9.688ZM71.75,27.125H67.875V21.313H71.75Zm5.813,0H73.688V17.438h3.875Zm5.813,0H79.5V13.563h3.875Z" transform="translate(-64)"/></g></g><rect class="a" width="19" height="17" transform="translate(462 96)"/><rect class="b" width="16" height="2" rx="1" transform="translate(464 98)"/><rect class="b" width="16" height="2" rx="1" transform="translate(464 104)"/><rect class="b" width="16" height="2" rx="1" transform="translate(464 110)"/></g></svg>