<svg xmlns="http://www.w3.org/2000/svg" width="27.222" height="30.036" viewBox="0 0 27.222 30.036"><defs><style>.a{fill:#398eca;}</style></defs><g transform="translate(-23.988)"><path class="a" d="M180.446,210.773H178.1a2.114,2.114,0,0,1-2.112-2.112V194.112A2.114,2.114,0,0,1,178.1,192h2.347a2.114,2.114,0,0,1,2.112,2.112v14.549A2.114,2.114,0,0,1,180.446,210.773Z" transform="translate(-143.083 -180.736)"/><path class="a" d="M28.446,286.079H26.1a2.114,2.114,0,0,1-2.112-2.112v-9.856A2.114,2.114,0,0,1,26.1,272h2.347a2.114,2.114,0,0,1,2.112,2.112v9.856A2.114,2.114,0,0,1,28.446,286.079Z" transform="translate(0 -256.043)"/><path class="a" d="M287.239,30.036h-2.347a2.114,2.114,0,0,1-2.112-2.112V8.448h-1.289a1.525,1.525,0,0,1-1.158-2.518l.014-.016,5.02-5.6a.939.939,0,0,1,1.4,0l5.02,5.6.014.016a1.525,1.525,0,0,1-1.158,2.518h-1.289V27.924A2.114,2.114,0,0,1,287.239,30.036Z" transform="translate(-240.959 0)"/></g></svg>