<svg xmlns="http://www.w3.org/2000/svg" width="36.114" height="33.877" viewBox="0 0 36.114 33.877"><defs><style>.a{fill:#398eca;}</style></defs><g transform="translate(0.369 -0.57)"><path class="a" d="M21.528,22.057a3.528,3.528,0,1,1,3.528-3.528A3.532,3.532,0,0,1,21.528,22.057Z" transform="translate(7.16 4.57)"/><path class="a" d="M25.262,20h-4.41A4.856,4.856,0,0,0,16,24.851v.882a1.324,1.324,0,0,0,1.323,1.323H28.79a1.324,1.324,0,0,0,1.323-1.323v-.882A4.856,4.856,0,0,0,25.262,20Z" transform="translate(5.631 7.391)"/><path class="a" d="M9.109,20.339a1.108,1.108,0,0,1-.632-2.018L12.8,15.329V11.108a1.108,1.108,0,0,1,2.215,0v4.8a1.11,1.11,0,0,1-.477.911l-4.8,3.323A1.106,1.106,0,0,1,9.109,20.339Z" transform="translate(3.816 6.77)"/><path class="a" d="M17.157,18.789a1.106,1.106,0,0,1-.629-.2l-4.8-3.323a1.108,1.108,0,0,1,1.261-1.821l4.8,3.323a1.108,1.108,0,0,1-.632,2.018Z" transform="translate(5.366 8.32)"/><path class="a" d="M21.528,22.057a3.528,3.528,0,1,1,3.528-3.528A3.532,3.532,0,0,1,21.528,22.057Z" transform="translate(-14.84 4.57)"/><path class="a" d="M25.262,20h-4.41A4.856,4.856,0,0,0,16,24.851v.882a1.324,1.324,0,0,0,1.323,1.323H28.79a1.324,1.324,0,0,0,1.323-1.323v-.882A4.856,4.856,0,0,0,25.262,20Z" transform="translate(-16.369 7.391)"/><path class="a" d="M21.528,22.057a3.528,3.528,0,1,1,3.528-3.528A3.532,3.532,0,0,1,21.528,22.057Z" transform="translate(-3.84 -14.43)"/><path class="a" d="M25.262,20h-4.41A4.856,4.856,0,0,0,16,24.851v.882a1.324,1.324,0,0,0,1.323,1.323H28.79a1.324,1.324,0,0,0,1.323-1.323v-.882A4.856,4.856,0,0,0,25.262,20Z" transform="translate(-5.369 -11.609)"/></g></svg>