<svg xmlns="http://www.w3.org/2000/svg" width="28.875" height="33" viewBox="0 0 28.875 33"><defs><style>.a{fill:#e2574c;}.b{fill:#b53629;}.c{fill:#fff;}</style></defs><g transform="translate(-19.329)"><path class="a" d="M21.391,0H38.915L48.2,9.252V30.938A2.063,2.063,0,0,1,46.141,33H21.391a2.063,2.063,0,0,1-2.062-2.062V2.062A2.063,2.063,0,0,1,21.391,0Z"/><path class="b" d="M212.208,9.454h-7.189a2.063,2.063,0,0,1-2.062-2.062V.193Z" transform="translate(-164.034 -0.172)"/><path class="c" d="M100.987,136.607a.6.6,0,0,0,0-1.187H99.02a.615.615,0,0,0-.6.67v4.835c0,.431.245.67.577.67s.577-.239.577-.67V139.6h1.19a.559.559,0,0,0,.554-.6.548.548,0,0,0-.554-.586h-1.19v-1.8Zm-6.651-1.187H92.9a.637.637,0,0,0-.668.666v4.844a.634.634,0,0,0,.685.649h1.511a2.8,2.8,0,0,0,2.969-2.993A2.875,2.875,0,0,0,94.337,135.42Zm.069,4.964h-.878v-3.77h.791c1.2,0,1.718.8,1.718,1.912C96.037,139.564,95.526,140.384,94.406,140.384Zm-5.274-4.964H87.706a.6.6,0,0,0-.628.67v4.835a.608.608,0,1,0,1.209,0v-1.412h.894a1.953,1.953,0,0,0,2.014-2.039A1.975,1.975,0,0,0,89.132,135.42Zm-.024,2.96h-.822v-1.824h.822a.916.916,0,0,1,0,1.824Z" transform="translate(-60.52 -120.97)"/></g></svg>