<svg xmlns="http://www.w3.org/2000/svg" width="33" height="33" viewBox="0 0 33 33"><defs><style>.a{fill:#398eca;}</style></defs><g transform="translate(0 0.001)"><path class="a" d="M28.449,17.542A15.135,15.135,0,0,1,26.221,18.7a3.729,3.729,0,0,1-2.942,0,17.5,17.5,0,0,1-4.07-2.447H6.077l2.035-4.675a1.385,1.385,0,0,1,1.251-.825h5.417A11.241,11.241,0,0,1,13.929,8H9.364a4.141,4.141,0,0,0-3.781,2.475L2.86,16.731c-.014.028,0,.055-.014.1A5.143,5.143,0,0,0,0,21.406v5.156a3.437,3.437,0,1,0,6.875,0v-.687h16.5v.687a3.437,3.437,0,1,0,6.875,0V21.406a5.027,5.027,0,0,0-1.8-3.864ZM8.25,23.125H5.5a1.375,1.375,0,1,1,0-2.75H8.25a1.375,1.375,0,0,1,0,2.75Zm16.5,0H22a1.375,1.375,0,1,1,0-2.75h2.75a1.375,1.375,0,1,1,0,2.75Z" transform="translate(0 3)"/><path class="a" d="M27.8,2.511,20.581.055a1.014,1.014,0,0,0-.663,0L12.7,2.511a1.03,1.03,0,0,0-.7.976V9.012c0,6.743,7.527,10.021,7.847,10.157a1.037,1.037,0,0,0,.806,0c.32-.136,7.847-3.414,7.847-10.157V3.487a1.03,1.03,0,0,0-.7-.976ZM24.768,7.725l-3.781,4.812a1.374,1.374,0,0,1-1.974.2L16.606,10.67A1.374,1.374,0,0,1,18.4,8.583l1.317,1.129,2.894-3.684a1.374,1.374,0,0,1,2.161,1.7Z" transform="translate(4.5)"/></g></svg>