<svg xmlns="http://www.w3.org/2000/svg" width="21.251" height="26.293" viewBox="0 0 21.251 26.293"><defs><style>.a{fill:#398eca;}</style></defs><path class="a" d="M93.166,12.27a5.936,5.936,0,0,0,4.338-1.8,5.936,5.936,0,0,0,1.8-4.338A5.937,5.937,0,0,0,97.5,1.8a6.134,6.134,0,0,0-8.675,0,5.936,5.936,0,0,0-1.8,4.338,5.936,5.936,0,0,0,1.8,4.338A5.938,5.938,0,0,0,93.166,12.27Zm0,0" transform="translate(-82.702 0)"/><path class="a" d="M21.2,254.6a15.152,15.152,0,0,0-.206-1.609,12.682,12.682,0,0,0-.4-1.618,7.992,7.992,0,0,0-.665-1.509,5.7,5.7,0,0,0-1-1.307,4.423,4.423,0,0,0-1.441-.905,4.981,4.981,0,0,0-1.84-.333,1.867,1.867,0,0,0-1,.423c-.3.195-.648.42-1.039.67a5.952,5.952,0,0,1-1.344.592,5.219,5.219,0,0,1-3.288,0,5.938,5.938,0,0,1-1.343-.592c-.387-.247-.736-.472-1.04-.67a1.865,1.865,0,0,0-1-.423,4.974,4.974,0,0,0-1.839.333,4.419,4.419,0,0,0-1.441.905,5.7,5.7,0,0,0-1,1.307,8.008,8.008,0,0,0-.665,1.509,12.712,12.712,0,0,0-.4,1.618,15.1,15.1,0,0,0-.206,1.61c-.034.487-.051.993-.051,1.5a4.23,4.23,0,0,0,1.256,3.2,4.522,4.522,0,0,0,3.237,1.181H16.758a4.521,4.521,0,0,0,3.237-1.181,4.228,4.228,0,0,0,1.256-3.2C21.251,255.59,21.234,255.084,21.2,254.6Zm0,0" transform="translate(0 -234.191)"/></svg>