<svg xmlns="http://www.w3.org/2000/svg" width="35.826" height="29.626" viewBox="0 0 35.826 29.626"><defs><style>.a{fill:#398eca;}</style></defs><g transform="translate(0 -44.308)"><g transform="translate(0 44.308)"><g transform="translate(0 0)"><path class="a" d="M26.181,53.954h9.646V49.475a5.173,5.173,0,0,0-5.167-5.167H5.167A5.173,5.173,0,0,0,0,49.475V68.766a5.173,5.173,0,0,0,5.167,5.167H30.659a5.173,5.173,0,0,0,5.167-5.167V64.288H26.181a5.167,5.167,0,0,1,0-10.335Z" transform="translate(0 -44.308)"/></g></g><g transform="translate(23.08 56.02)"><g transform="translate(0 0)"><path class="a" d="M332.946,211.692a3.1,3.1,0,0,0,0,6.2h9.646v-6.2h-9.646Zm1.378,4.134h-1.378a1.033,1.033,0,0,1,0-2.067h1.378a1.033,1.033,0,1,1,0,2.067Z" transform="translate(-329.846 -211.692)"/></g></g></g></svg>